<svg width="236" height="47" viewBox="0 0 236 47" fill="none" xmlns="http://www.w3.org/2000/svg">
<g filter="url(#filter0_dd_1_3)">
<path d="M17.0875 19.8906H11.2906V16.2344H17.0875C17.9833 16.2344 18.7125 16.0885 19.275 15.7969C19.8375 15.4948 20.249 15.0781 20.5094 14.5469C20.7698 14.0156 20.9 13.4167 20.9 12.75C20.9 12.0729 20.7698 11.4427 20.5094 10.8594C20.249 10.276 19.8375 9.80729 19.275 9.45312C18.7125 9.09896 17.9833 8.92188 17.0875 8.92188H12.9156V28H8.22813V5.25H17.0875C18.8688 5.25 20.3948 5.57292 21.6656 6.21875C22.9469 6.85417 23.926 7.73438 24.6031 8.85938C25.2802 9.98438 25.6188 11.2708 25.6188 12.7188C25.6188 14.1875 25.2802 15.4583 24.6031 16.5312C23.926 17.6042 22.9469 18.4323 21.6656 19.0156C20.3948 19.599 18.8688 19.8906 17.0875 19.8906ZM36.2719 14.7812V28H31.7719V11.0938H36.0063L36.2719 14.7812ZM41.3656 10.9844L41.2875 15.1562C41.0688 15.125 40.8031 15.099 40.4906 15.0781C40.1885 15.0469 39.9125 15.0312 39.6625 15.0312C39.0271 15.0312 38.475 15.1146 38.0063 15.2812C37.5479 15.4375 37.1625 15.6719 36.85 15.9844C36.5479 16.2969 36.3188 16.6771 36.1625 17.125C36.0167 17.5729 35.9333 18.0833 35.9125 18.6562L35.0063 18.375C35.0063 17.2812 35.1156 16.276 35.3344 15.3594C35.5531 14.4323 35.8708 13.625 36.2875 12.9375C36.7146 12.25 37.2354 11.7188 37.85 11.3438C38.4646 10.9688 39.1677 10.7812 39.9594 10.7812C40.2094 10.7812 40.4646 10.8021 40.725 10.8438C40.9854 10.875 41.199 10.9219 41.3656 10.9844ZM55.2844 24.1875V16.6562C55.2844 16.1146 55.1958 15.651 55.0188 15.2656C54.8417 14.8698 54.5656 14.5625 54.1906 14.3438C53.826 14.125 53.3521 14.0156 52.7688 14.0156C52.2688 14.0156 51.8365 14.1042 51.4719 14.2812C51.1073 14.4479 50.826 14.6927 50.6281 15.0156C50.4302 15.3281 50.3313 15.6979 50.3313 16.125H45.8313C45.8313 15.4062 45.9979 14.724 46.3313 14.0781C46.6646 13.4323 47.149 12.8646 47.7844 12.375C48.4198 11.875 49.175 11.4844 50.05 11.2031C50.9354 10.9219 51.925 10.7812 53.0188 10.7812C54.3313 10.7812 55.4979 11 56.5188 11.4375C57.5396 11.875 58.3417 12.5312 58.925 13.4062C59.5188 14.2812 59.8156 15.375 59.8156 16.6875V23.9219C59.8156 24.849 59.8729 25.6094 59.9875 26.2031C60.1021 26.7865 60.2688 27.2969 60.4875 27.7344V28H55.9406C55.7219 27.5417 55.5552 26.9688 55.4406 26.2812C55.3365 25.5833 55.2844 24.8854 55.2844 24.1875ZM55.8781 17.7031L55.9094 20.25H53.3938C52.8 20.25 52.2844 20.3177 51.8469 20.4531C51.4094 20.5885 51.05 20.7812 50.7688 21.0312C50.4875 21.2708 50.2792 21.5521 50.1438 21.875C50.0188 22.1979 49.9563 22.5521 49.9563 22.9375C49.9563 23.3229 50.0448 23.6719 50.2219 23.9844C50.399 24.2865 50.6542 24.526 50.9875 24.7031C51.3208 24.8698 51.7115 24.9531 52.1594 24.9531C52.8365 24.9531 53.425 24.8177 53.925 24.5469C54.425 24.276 54.8104 23.9427 55.0813 23.5469C55.3625 23.151 55.5083 22.776 55.5188 22.4219L56.7063 24.3281C56.5396 24.7552 56.3104 25.1979 56.0188 25.6562C55.7375 26.1146 55.3781 26.5469 54.9406 26.9531C54.5031 27.349 53.9771 27.6771 53.3625 27.9375C52.7479 28.1875 52.0188 28.3125 51.175 28.3125C50.1021 28.3125 49.1281 28.099 48.2531 27.6719C47.3885 27.2344 46.701 26.6354 46.1906 25.875C45.6906 25.1042 45.4406 24.2292 45.4406 23.25C45.4406 22.3646 45.6073 21.5781 45.9406 20.8906C46.274 20.2031 46.7635 19.625 47.4094 19.1562C48.0656 18.6771 48.8833 18.3177 49.8625 18.0781C50.8417 17.8281 51.9771 17.7031 53.2688 17.7031H55.8781ZM76.4688 24.3125V4H81V28H76.9219L76.4688 24.3125ZM65.7812 19.75V19.4219C65.7812 18.1302 65.9271 16.9583 66.2188 15.9062C66.5104 14.8438 66.9375 13.9323 67.5 13.1719C68.0625 12.4115 68.7552 11.8229 69.5781 11.4062C70.401 10.9896 71.3385 10.7812 72.3906 10.7812C73.3802 10.7812 74.2448 10.9896 74.9844 11.4062C75.7344 11.8229 76.3698 12.4167 76.8906 13.1875C77.4219 13.9479 77.849 14.849 78.1719 15.8906C78.4948 16.9219 78.7292 18.0521 78.875 19.2812V20C78.7292 21.1771 78.4948 22.2708 78.1719 23.2812C77.849 24.2917 77.4219 25.1771 76.8906 25.9375C76.3698 26.6875 75.7344 27.2708 74.9844 27.6875C74.2344 28.1042 73.3594 28.3125 72.3594 28.3125C71.3073 28.3125 70.3698 28.099 69.5469 27.6719C68.7344 27.2448 68.0469 26.6458 67.4844 25.875C66.9323 25.1042 66.5104 24.1979 66.2188 23.1562C65.9271 22.1146 65.7812 20.9792 65.7812 19.75ZM70.2812 19.4219V19.75C70.2812 20.4479 70.3333 21.099 70.4375 21.7031C70.5521 22.3073 70.7344 22.8438 70.9844 23.3125C71.2448 23.7708 71.5781 24.1302 71.9844 24.3906C72.401 24.6406 72.9062 24.7656 73.5 24.7656C74.2708 24.7656 74.9062 24.5938 75.4062 24.25C75.9062 23.8958 76.2865 23.4115 76.5469 22.7969C76.8177 22.1823 76.974 21.474 77.0156 20.6719V18.625C76.9844 17.9688 76.8906 17.3802 76.7344 16.8594C76.5885 16.3281 76.3698 15.875 76.0781 15.5C75.7969 15.125 75.4427 14.8333 75.0156 14.625C74.599 14.4167 74.1042 14.3125 73.5312 14.3125C72.9479 14.3125 72.4479 14.4479 72.0312 14.7188C71.6146 14.9792 71.276 15.3385 71.0156 15.7969C70.7656 16.2552 70.5781 16.7969 70.4531 17.4219C70.3385 18.0365 70.2812 18.7031 70.2812 19.4219ZM95.4969 28.3125C94.1844 28.3125 93.0073 28.1042 91.9656 27.6875C90.924 27.2604 90.0385 26.6719 89.3094 25.9219C88.5906 25.1719 88.0385 24.3021 87.6531 23.3125C87.2677 22.3125 87.075 21.25 87.075 20.125V19.5C87.075 18.2188 87.2573 17.0469 87.6219 15.9844C87.9865 14.9219 88.5073 14 89.1844 13.2188C89.8719 12.4375 90.7052 11.8385 91.6844 11.4219C92.6635 10.9948 93.7677 10.7812 94.9969 10.7812C96.1948 10.7812 97.2573 10.9792 98.1844 11.375C99.1115 11.7708 99.8875 12.3333 100.513 13.0625C101.148 13.7917 101.627 14.6667 101.95 15.6875C102.273 16.6979 102.434 17.8229 102.434 19.0625V20.9375H88.9969V17.9375H98.0125V17.5938C98.0125 16.9688 97.8979 16.4115 97.6688 15.9219C97.45 15.4219 97.1167 15.026 96.6688 14.7344C96.2208 14.4427 95.6479 14.2969 94.95 14.2969C94.3563 14.2969 93.8458 14.4271 93.4188 14.6875C92.9917 14.9479 92.6427 15.3125 92.3719 15.7812C92.1115 16.25 91.9135 16.8021 91.7781 17.4375C91.6531 18.0625 91.5906 18.75 91.5906 19.5V20.125C91.5906 20.8021 91.6844 21.4271 91.8719 22C92.0698 22.5729 92.3458 23.0677 92.7 23.4844C93.0646 23.901 93.5021 24.224 94.0125 24.4531C94.5333 24.6823 95.1219 24.7969 95.7781 24.7969C96.5906 24.7969 97.3458 24.6406 98.0438 24.3281C98.7521 24.0052 99.3615 23.5208 99.8719 22.875L102.059 25.25C101.705 25.7604 101.221 26.25 100.606 26.7188C100.002 27.1875 99.2729 27.5729 98.4188 27.875C97.5646 28.1667 96.5906 28.3125 95.4969 28.3125ZM115.978 28.3125C114.666 28.3125 113.489 28.1042 112.447 27.6875C111.405 27.2604 110.52 26.6719 109.791 25.9219C109.072 25.1719 108.52 24.3021 108.134 23.3125C107.749 22.3125 107.556 21.25 107.556 20.125V19.5C107.556 18.2188 107.739 17.0469 108.103 15.9844C108.468 14.9219 108.989 14 109.666 13.2188C110.353 12.4375 111.186 11.8385 112.166 11.4219C113.145 10.9948 114.249 10.7812 115.478 10.7812C116.676 10.7812 117.739 10.9792 118.666 11.375C119.593 11.7708 120.369 12.3333 120.994 13.0625C121.629 13.7917 122.108 14.6667 122.431 15.6875C122.754 16.6979 122.916 17.8229 122.916 19.0625V20.9375H109.478V17.9375H118.494V17.5938C118.494 16.9688 118.379 16.4115 118.15 15.9219C117.931 15.4219 117.598 15.026 117.15 14.7344C116.702 14.4427 116.129 14.2969 115.431 14.2969C114.838 14.2969 114.327 14.4271 113.9 14.6875C113.473 14.9479 113.124 15.3125 112.853 15.7812C112.593 16.25 112.395 16.8021 112.259 17.4375C112.134 18.0625 112.072 18.75 112.072 19.5V20.125C112.072 20.8021 112.166 21.4271 112.353 22C112.551 22.5729 112.827 23.0677 113.181 23.4844C113.546 23.901 113.983 24.224 114.494 24.4531C115.015 24.6823 115.603 24.7969 116.259 24.7969C117.072 24.7969 117.827 24.6406 118.525 24.3281C119.233 24.0052 119.843 23.5208 120.353 22.875L122.541 25.25C122.186 25.7604 121.702 26.25 121.088 26.7188C120.483 27.1875 119.754 27.5729 118.9 27.875C118.046 28.1667 117.072 28.3125 115.978 28.3125ZM133.178 14.3438V34.5H128.678V11.0938H132.85L133.178 14.3438ZM143.881 19.3594V19.6875C143.881 20.9167 143.735 22.0573 143.444 23.1094C143.162 24.1615 142.746 25.0781 142.194 25.8594C141.642 26.6302 140.954 27.2344 140.131 27.6719C139.319 28.099 138.381 28.3125 137.319 28.3125C136.287 28.3125 135.392 28.1042 134.631 27.6875C133.871 27.2708 133.23 26.6875 132.709 25.9375C132.199 25.1771 131.787 24.2969 131.475 23.2969C131.162 22.2969 130.923 21.224 130.756 20.0781V19.2188C130.923 17.9896 131.162 16.8646 131.475 15.8438C131.787 14.8125 132.199 13.9219 132.709 13.1719C133.23 12.4115 133.866 11.8229 134.616 11.4062C135.376 10.9896 136.267 10.7812 137.287 10.7812C138.36 10.7812 139.303 10.9844 140.116 11.3906C140.939 11.7969 141.626 12.3802 142.178 13.1406C142.741 13.901 143.162 14.8073 143.444 15.8594C143.735 16.9115 143.881 18.0781 143.881 19.3594ZM139.366 19.6875V19.3594C139.366 18.6406 139.303 17.9792 139.178 17.375C139.064 16.7604 138.876 16.224 138.616 15.7656C138.366 15.3073 138.032 14.9531 137.616 14.7031C137.209 14.4427 136.715 14.3125 136.131 14.3125C135.517 14.3125 134.991 14.4115 134.553 14.6094C134.126 14.8073 133.777 15.0938 133.506 15.4688C133.235 15.8438 133.032 16.2917 132.897 16.8125C132.761 17.3333 132.678 17.9219 132.647 18.5781V20.75C132.699 21.5208 132.845 22.2135 133.084 22.8281C133.324 23.4323 133.694 23.9115 134.194 24.2656C134.694 24.6198 135.35 24.7969 136.162 24.7969C136.756 24.7969 137.256 24.6667 137.662 24.4062C138.069 24.1354 138.397 23.7656 138.647 23.2969C138.907 22.8281 139.09 22.2865 139.194 21.6719C139.308 21.0573 139.366 20.3958 139.366 19.6875Z" fill="#102A42"/>
<path d="M170.531 21.0156V5.25H175.203V21.0156C175.203 22.5365 174.87 23.8438 174.203 24.9375C173.536 26.0208 172.625 26.8542 171.469 27.4375C170.323 28.0208 169.031 28.3125 167.594 28.3125C166.104 28.3125 164.786 28.0625 163.641 27.5625C162.495 27.0625 161.594 26.2969 160.938 25.2656C160.281 24.224 159.953 22.9062 159.953 21.3125H164.656C164.656 22.1458 164.771 22.8073 165 23.2969C165.24 23.7865 165.578 24.1354 166.016 24.3438C166.453 24.5521 166.979 24.6562 167.594 24.6562C168.188 24.6562 168.703 24.5156 169.141 24.2344C169.578 23.9531 169.917 23.5417 170.156 23C170.406 22.4583 170.531 21.7969 170.531 21.0156ZM191.247 24.1875V16.6562C191.247 16.1146 191.158 15.651 190.981 15.2656C190.804 14.8698 190.528 14.5625 190.153 14.3438C189.789 14.125 189.315 14.0156 188.731 14.0156C188.231 14.0156 187.799 14.1042 187.434 14.2812C187.07 14.4479 186.789 14.6927 186.591 15.0156C186.393 15.3281 186.294 15.6979 186.294 16.125H181.794C181.794 15.4062 181.96 14.724 182.294 14.0781C182.627 13.4323 183.111 12.8646 183.747 12.375C184.382 11.875 185.138 11.4844 186.013 11.2031C186.898 10.9219 187.888 10.7812 188.981 10.7812C190.294 10.7812 191.46 11 192.481 11.4375C193.502 11.875 194.304 12.5312 194.888 13.4062C195.481 14.2812 195.778 15.375 195.778 16.6875V23.9219C195.778 24.849 195.835 25.6094 195.95 26.2031C196.065 26.7865 196.231 27.2969 196.45 27.7344V28H191.903C191.684 27.5417 191.518 26.9688 191.403 26.2812C191.299 25.5833 191.247 24.8854 191.247 24.1875ZM191.841 17.7031L191.872 20.25H189.356C188.763 20.25 188.247 20.3177 187.809 20.4531C187.372 20.5885 187.013 20.7812 186.731 21.0312C186.45 21.2708 186.242 21.5521 186.106 21.875C185.981 22.1979 185.919 22.5521 185.919 22.9375C185.919 23.3229 186.007 23.6719 186.184 23.9844C186.361 24.2865 186.617 24.526 186.95 24.7031C187.283 24.8698 187.674 24.9531 188.122 24.9531C188.799 24.9531 189.388 24.8177 189.888 24.5469C190.388 24.276 190.773 23.9427 191.044 23.5469C191.325 23.151 191.471 22.776 191.481 22.4219L192.669 24.3281C192.502 24.7552 192.273 25.1979 191.981 25.6562C191.7 26.1146 191.341 26.5469 190.903 26.9531C190.466 27.349 189.94 27.6771 189.325 27.9375C188.71 28.1875 187.981 28.3125 187.138 28.3125C186.065 28.3125 185.091 28.099 184.216 27.6719C183.351 27.2344 182.664 26.6354 182.153 25.875C181.653 25.1042 181.403 24.2292 181.403 23.25C181.403 22.3646 181.57 21.5781 181.903 20.8906C182.236 20.2031 182.726 19.625 183.372 19.1562C184.028 18.6771 184.846 18.3177 185.825 18.0781C186.804 17.8281 187.94 17.7031 189.231 17.7031H191.841ZM207.197 11.0938V28H202.681V11.0938H207.197ZM202.4 6.6875C202.4 6.03125 202.629 5.48958 203.087 5.0625C203.546 4.63542 204.16 4.42188 204.931 4.42188C205.692 4.42188 206.301 4.63542 206.759 5.0625C207.228 5.48958 207.462 6.03125 207.462 6.6875C207.462 7.34375 207.228 7.88542 206.759 8.3125C206.301 8.73958 205.692 8.95312 204.931 8.95312C204.16 8.95312 203.546 8.73958 203.087 8.3125C202.629 7.88542 202.4 7.34375 202.4 6.6875ZM223.256 23.3281C223.256 23.0052 223.163 22.7135 222.975 22.4531C222.788 22.1927 222.439 21.9531 221.928 21.7344C221.428 21.5052 220.704 21.2969 219.756 21.1094C218.902 20.9219 218.105 20.6875 217.366 20.4062C216.636 20.1146 216.001 19.7656 215.459 19.3594C214.928 18.9531 214.511 18.474 214.209 17.9219C213.907 17.3594 213.756 16.7188 213.756 16C213.756 15.2917 213.907 14.625 214.209 14C214.522 13.375 214.965 12.8229 215.538 12.3438C216.121 11.8542 216.829 11.474 217.663 11.2031C218.506 10.9219 219.454 10.7812 220.506 10.7812C221.975 10.7812 223.235 11.0156 224.288 11.4844C225.35 11.9531 226.163 12.599 226.725 13.4219C227.298 14.2344 227.584 15.1615 227.584 16.2031H223.084C223.084 15.7656 222.991 15.375 222.803 15.0312C222.626 14.6771 222.345 14.401 221.959 14.2031C221.584 13.9948 221.095 13.8906 220.491 13.8906C219.991 13.8906 219.558 13.9792 219.194 14.1562C218.829 14.3229 218.548 14.5521 218.35 14.8438C218.163 15.125 218.069 15.4375 218.069 15.7812C218.069 16.0417 218.121 16.276 218.225 16.4844C218.34 16.6823 218.522 16.8646 218.772 17.0312C219.022 17.1979 219.345 17.3542 219.741 17.5C220.147 17.6354 220.647 17.7604 221.241 17.875C222.459 18.125 223.548 18.4531 224.506 18.8594C225.465 19.2552 226.225 19.7969 226.788 20.4844C227.35 21.1615 227.631 22.0521 227.631 23.1562C227.631 23.9062 227.465 24.5938 227.131 25.2188C226.798 25.8438 226.319 26.3906 225.694 26.8594C225.069 27.3177 224.319 27.6771 223.444 27.9375C222.579 28.1875 221.605 28.3125 220.522 28.3125C218.949 28.3125 217.616 28.0312 216.522 27.4688C215.439 26.9062 214.616 26.1927 214.053 25.3281C213.501 24.4531 213.225 23.5573 213.225 22.6406H217.491C217.511 23.2552 217.668 23.75 217.959 24.125C218.261 24.5 218.642 24.7708 219.1 24.9375C219.569 25.1042 220.074 25.1875 220.616 25.1875C221.199 25.1875 221.683 25.1094 222.069 24.9531C222.454 24.7865 222.746 24.5677 222.944 24.2969C223.152 24.0156 223.256 23.6927 223.256 23.3281Z" fill="#49A6E9"/>
</g>
<defs>
<filter id="filter0_dd_1_3" x="0.228127" y="0" width="235.403" height="46.5" filterUnits="userSpaceOnUse" color-interpolation-filters="sRGB">
<feFlood flood-opacity="0" result="BackgroundImageFix"/>
<feColorMatrix in="SourceAlpha" type="matrix" values="0 0 0 0 0 0 0 0 0 0 0 0 0 0 0 0 0 0 127 0" result="hardAlpha"/>
<feOffset dy="4"/>
<feGaussianBlur stdDeviation="2"/>
<feComposite in2="hardAlpha" operator="out"/>
<feColorMatrix type="matrix" values="0 0 0 0 0 0 0 0 0 0 0 0 0 0 0 0 0 0 0.25 0"/>
<feBlend mode="normal" in2="BackgroundImageFix" result="effect1_dropShadow_1_3"/>
<feColorMatrix in="SourceAlpha" type="matrix" values="0 0 0 0 0 0 0 0 0 0 0 0 0 0 0 0 0 0 127 0" result="hardAlpha"/>
<feOffset dy="4"/>
<feGaussianBlur stdDeviation="4"/>
<feComposite in2="hardAlpha" operator="out"/>
<feColorMatrix type="matrix" values="0 0 0 0 0 0 0 0 0 0 0 0 0 0 0 0 0 0 0.31 0"/>
<feBlend mode="normal" in2="effect1_dropShadow_1_3" result="effect2_dropShadow_1_3"/>
<feBlend mode="normal" in="SourceGraphic" in2="effect2_dropShadow_1_3" result="shape"/>
</filter>
</defs>
</svg>
