<svg id="visual" viewBox="0 0 1080 200" width="1080" height="200" xmlns="http://www.w3.org/2000/svg" xmlns:xlink="http://www.w3.org/1999/xlink" version="1.1"><path d="M0 63L15 63.7C30 64.3 60 65.7 90 62C120 58.3 150 49.7 180 45.7C210 41.7 240 42.3 270 47.7C300 53 330 63 360 67.3C390 71.7 420 70.3 450 63C480 55.7 510 42.3 540 39.3C570 36.3 600 43.7 630 44.3C660 45 690 39 720 41C750 43 780 53 810 59.3C840 65.7 870 68.3 900 66C930 63.7 960 56.3 990 53C1020 49.7 1050 50.3 1065 50.7L1080 51L1080 0L1065 0C1050 0 1020 0 990 0C960 0 930 0 900 0C870 0 840 0 810 0C780 0 750 0 720 0C690 0 660 0 630 0C600 0 570 0 540 0C510 0 480 0 450 0C420 0 390 0 360 0C330 0 300 0 270 0C240 0 210 0 180 0C150 0 120 0 90 0C60 0 30 0 15 0L0 0Z" fill="#367ab4"></path><path d="M0 87L15 88.3C30 89.7 60 92.3 90 91C120 89.7 150 84.3 180 82.3C210 80.3 240 81.7 270 84.7C300 87.7 330 92.3 360 94.3C390 96.3 420 95.7 450 89.3C480 83 510 71 540 68.7C570 66.3 600 73.7 630 73.7C660 73.7 690 66.3 720 66C750 65.7 780 72.3 810 77.7C840 83 870 87 900 85.3C930 83.7 960 76.3 990 76.3C1020 76.3 1050 83.7 1065 87.3L1080 91L1080 49L1065 48.7C1050 48.3 1020 47.7 990 51C960 54.3 930 61.7 900 64C870 66.3 840 63.7 810 57.3C780 51 750 41 720 39C690 37 660 43 630 42.3C600 41.7 570 34.3 540 37.3C510 40.3 480 53.7 450 61C420 68.3 390 69.7 360 65.3C330 61 300 51 270 45.7C240 40.3 210 39.7 180 43.7C150 47.7 120 56.3 90 60C60 63.7 30 62.3 15 61.7L0 61Z" fill="#2268a2"></path><path d="M0 143L15 140.7C30 138.3 60 133.7 90 131C120 128.3 150 127.7 180 131.3C210 135 240 143 270 145C300 147 330 143 360 140.3C390 137.7 420 136.3 450 135.7C480 135 510 135 540 137C570 139 600 143 630 141.3C660 139.7 690 132.3 720 130C750 127.7 780 130.3 810 134.3C840 138.3 870 143.7 900 142.3C930 141 960 133 990 129.7C1020 126.3 1050 127.7 1065 128.3L1080 129L1080 89L1065 85.3C1050 81.7 1020 74.3 990 74.3C960 74.3 930 81.7 900 83.3C870 85 840 81 810 75.7C780 70.3 750 63.7 720 64C690 64.3 660 71.7 630 71.7C600 71.7 570 64.3 540 66.7C510 69 480 81 450 87.3C420 93.7 390 94.3 360 92.3C330 90.3 300 85.7 270 82.7C240 79.7 210 78.3 180 80.3C150 82.3 120 87.7 90 89C60 90.3 30 87.7 15 86.3L0 85Z" fill="#045691"></path><path d="M0 167L15 168C30 169 60 171 90 171C120 171 150 169 180 171C210 173 240 179 270 182.3C300 185.7 330 186.3 360 185.3C390 184.3 420 181.7 450 179.3C480 177 510 175 540 173.3C570 171.7 600 170.3 630 171C660 171.7 690 174.3 720 175.7C750 177 780 177 810 179C840 181 870 185 900 183.7C930 182.3 960 175.7 990 173.7C1020 171.7 1050 174.3 1065 175.7L1080 177L1080 127L1065 126.3C1050 125.7 1020 124.3 990 127.7C960 131 930 139 900 140.3C870 141.7 840 136.3 810 132.3C780 128.3 750 125.7 720 128C690 130.3 660 137.7 630 139.3C600 141 570 137 540 135C510 133 480 133 450 133.7C420 134.3 390 135.7 360 138.3C330 141 300 145 270 143C240 141 210 133 180 129.3C150 125.7 120 126.3 90 129C60 131.7 30 136.3 15 138.7L0 141Z" fill="#014a7d"></path><path d="M0 201L15 201C30 201 60 201 90 201C120 201 150 201 180 201C210 201 240 201 270 201C300 201 330 201 360 201C390 201 420 201 450 201C480 201 510 201 540 201C570 201 600 201 630 201C660 201 690 201 720 201C750 201 780 201 810 201C840 201 870 201 900 201C930 201 960 201 990 201C1020 201 1050 201 1065 201L1080 201L1080 175L1065 173.7C1050 172.3 1020 169.7 990 171.7C960 173.7 930 180.3 900 181.7C870 183 840 179 810 177C780 175 750 175 720 173.7C690 172.3 660 169.7 630 169C600 168.3 570 169.7 540 171.3C510 173 480 175 450 177.3C420 179.7 390 182.3 360 183.3C330 184.3 300 183.7 270 180.3C240 177 210 171 180 169C150 167 120 169 90 169C60 169 30 167 15 166L0 165Z" fill="#003f6a"></path></svg>